<mxfile host="Electron" modified="2023-11-13T14:26:55.048Z" agent="Mozilla/5.0 (Windows NT 10.0; Win64; x64) AppleWebKit/537.36 (KHTML, like Gecko) draw.io/22.0.0 Chrome/114.0.5735.289 Electron/25.8.3 Safari/537.36" etag="FA4KrHM4xFsCZ0RU2P1b" version="22.0.0" type="device">
  <diagram name="Page-1" id="n-e8tWW_CJZxiM2zyDSC">
    <mxGraphModel dx="1008" dy="603" grid="1" gridSize="10" guides="1" tooltips="1" connect="1" arrows="1" fold="1" page="1" pageScale="1" pageWidth="827" pageHeight="1169" math="0" shadow="0">
      <root>
        <mxCell id="0" />
        <mxCell id="1" parent="0" />
        <mxCell id="p4xNBlKIBzw1sxDvnefI-1" value="" style="rounded=0;whiteSpace=wrap;html=1;sketch=1;hachureGap=4;jiggle=2;curveFitting=1;fontFamily=Architects Daughter;fontSource=https%3A%2F%2Ffonts.googleapis.com%2Fcss%3Ffamily%3DArchitects%2BDaughter;fontSize=20;horizontal=1;verticalAlign=top;align=right;fillColor=#dae8fc;strokeColor=#6c8ebf;" parent="1" vertex="1">
          <mxGeometry x="30" y="430" width="820" height="60" as="geometry" />
        </mxCell>
        <mxCell id="p4xNBlKIBzw1sxDvnefI-2" value="&lt;b&gt;1&lt;/b&gt;" style="rounded=0;whiteSpace=wrap;html=1;sketch=1;hachureGap=4;jiggle=2;curveFitting=1;fontFamily=Architects Daughter;fontSource=https%3A%2F%2Ffonts.googleapis.com%2Fcss%3Ffamily%3DArchitects%2BDaughter;fontSize=20;" parent="1" vertex="1">
          <mxGeometry x="110" y="440" width="50" height="40" as="geometry" />
        </mxCell>
        <mxCell id="p4xNBlKIBzw1sxDvnefI-3" value="&lt;b&gt;0&lt;/b&gt;" style="rounded=0;whiteSpace=wrap;html=1;sketch=1;hachureGap=4;jiggle=2;curveFitting=1;fontFamily=Architects Daughter;fontSource=https%3A%2F%2Ffonts.googleapis.com%2Fcss%3Ffamily%3DArchitects%2BDaughter;fontSize=20;" parent="1" vertex="1">
          <mxGeometry x="50" y="440" width="50" height="40" as="geometry" />
        </mxCell>
        <mxCell id="p4xNBlKIBzw1sxDvnefI-4" value="&lt;b&gt;2&lt;/b&gt;" style="rounded=0;whiteSpace=wrap;html=1;sketch=1;hachureGap=4;jiggle=2;curveFitting=1;fontFamily=Architects Daughter;fontSource=https%3A%2F%2Ffonts.googleapis.com%2Fcss%3Ffamily%3DArchitects%2BDaughter;fontSize=20;" parent="1" vertex="1">
          <mxGeometry x="170" y="440" width="50" height="40" as="geometry" />
        </mxCell>
        <mxCell id="p4xNBlKIBzw1sxDvnefI-5" value="&lt;b&gt;m&lt;/b&gt;" style="rounded=0;whiteSpace=wrap;html=1;sketch=1;hachureGap=4;jiggle=2;curveFitting=1;fontFamily=Architects Daughter;fontSource=https%3A%2F%2Ffonts.googleapis.com%2Fcss%3Ffamily%3DArchitects%2BDaughter;fontSize=20;" parent="1" vertex="1">
          <mxGeometry x="280" y="440" width="50" height="40" as="geometry" />
        </mxCell>
        <mxCell id="p4xNBlKIBzw1sxDvnefI-6" value="&lt;b&gt;m+1&lt;/b&gt;" style="rounded=0;whiteSpace=wrap;html=1;sketch=1;hachureGap=4;jiggle=2;curveFitting=1;fontFamily=Architects Daughter;fontSource=https%3A%2F%2Ffonts.googleapis.com%2Fcss%3Ffamily%3DArchitects%2BDaughter;fontSize=20;" parent="1" vertex="1">
          <mxGeometry x="340" y="440" width="50" height="40" as="geometry" />
        </mxCell>
        <mxCell id="p4xNBlKIBzw1sxDvnefI-7" value="&lt;b&gt;m+2&lt;/b&gt;" style="rounded=0;whiteSpace=wrap;html=1;sketch=1;hachureGap=4;jiggle=2;curveFitting=1;fontFamily=Architects Daughter;fontSource=https%3A%2F%2Ffonts.googleapis.com%2Fcss%3Ffamily%3DArchitects%2BDaughter;fontSize=20;" parent="1" vertex="1">
          <mxGeometry x="400" y="440" width="50" height="40" as="geometry" />
        </mxCell>
        <mxCell id="p4xNBlKIBzw1sxDvnefI-8" value="&lt;b&gt;n&lt;/b&gt;" style="rounded=0;whiteSpace=wrap;html=1;sketch=1;hachureGap=4;jiggle=2;curveFitting=1;fontFamily=Architects Daughter;fontSource=https%3A%2F%2Ffonts.googleapis.com%2Fcss%3Ffamily%3DArchitects%2BDaughter;fontSize=20;" parent="1" vertex="1">
          <mxGeometry x="510" y="440" width="50" height="40" as="geometry" />
        </mxCell>
        <mxCell id="p4xNBlKIBzw1sxDvnefI-9" value="&lt;b&gt;n+1&lt;/b&gt;" style="rounded=0;whiteSpace=wrap;html=1;sketch=1;hachureGap=4;jiggle=2;curveFitting=1;fontFamily=Architects Daughter;fontSource=https%3A%2F%2Ffonts.googleapis.com%2Fcss%3Ffamily%3DArchitects%2BDaughter;fontSize=20;" parent="1" vertex="1">
          <mxGeometry x="570" y="440" width="50" height="40" as="geometry" />
        </mxCell>
        <mxCell id="p4xNBlKIBzw1sxDvnefI-10" value="&lt;b style=&quot;border-color: var(--border-color);&quot;&gt;n+2&lt;/b&gt;" style="rounded=0;whiteSpace=wrap;html=1;sketch=1;hachureGap=4;jiggle=2;curveFitting=1;fontFamily=Architects Daughter;fontSource=https%3A%2F%2Ffonts.googleapis.com%2Fcss%3Ffamily%3DArchitects%2BDaughter;fontSize=20;" parent="1" vertex="1">
          <mxGeometry x="640" y="440" width="50" height="40" as="geometry" />
        </mxCell>
        <mxCell id="p4xNBlKIBzw1sxDvnefI-11" value="&lt;b style=&quot;border-color: var(--border-color);&quot;&gt;n+3&lt;/b&gt;" style="rounded=0;whiteSpace=wrap;html=1;sketch=1;hachureGap=4;jiggle=2;curveFitting=1;fontFamily=Architects Daughter;fontSource=https%3A%2F%2Ffonts.googleapis.com%2Fcss%3Ffamily%3DArchitects%2BDaughter;fontSize=20;" parent="1" vertex="1">
          <mxGeometry x="700" y="440" width="50" height="40" as="geometry" />
        </mxCell>
        <mxCell id="YnqV_Xg9dmx3B1v00Xrc-20" style="rounded=0;sketch=1;hachureGap=4;jiggle=2;curveFitting=1;orthogonalLoop=1;jettySize=auto;html=1;exitX=0.25;exitY=1;exitDx=0;exitDy=0;entryX=0.5;entryY=0;entryDx=0;entryDy=0;fontFamily=Architects Daughter;fontSource=https%3A%2F%2Ffonts.googleapis.com%2Fcss%3Ffamily%3DArchitects%2BDaughter;fontSize=16;" edge="1" parent="1" source="p4xNBlKIBzw1sxDvnefI-13" target="p4xNBlKIBzw1sxDvnefI-6">
          <mxGeometry relative="1" as="geometry" />
        </mxCell>
        <mxCell id="p4xNBlKIBzw1sxDvnefI-13" value="&lt;font style=&quot;font-size: 15px;&quot;&gt;Consumer 2&lt;br&gt;group-id: group-1&lt;/font&gt;" style="rounded=0;whiteSpace=wrap;html=1;sketch=1;hachureGap=4;jiggle=2;curveFitting=1;fontFamily=Architects Daughter;fontSource=https%3A%2F%2Ffonts.googleapis.com%2Fcss%3Ffamily%3DArchitects%2BDaughter;fontSize=20;fontStyle=1;fillColor=#d5e8d4;strokeColor=#82b366;" parent="1" vertex="1">
          <mxGeometry x="225" y="320" width="120" height="60" as="geometry" />
        </mxCell>
        <mxCell id="YnqV_Xg9dmx3B1v00Xrc-14" style="rounded=0;sketch=1;hachureGap=4;jiggle=2;curveFitting=1;orthogonalLoop=1;jettySize=auto;html=1;exitX=0;exitY=0.5;exitDx=0;exitDy=0;entryX=0.5;entryY=1;entryDx=0;entryDy=0;fontFamily=Architects Daughter;fontSource=https%3A%2F%2Ffonts.googleapis.com%2Fcss%3Ffamily%3DArchitects%2BDaughter;fontSize=16;" edge="1" parent="1" source="p4xNBlKIBzw1sxDvnefI-14" target="YnqV_Xg9dmx3B1v00Xrc-5">
          <mxGeometry relative="1" as="geometry" />
        </mxCell>
        <mxCell id="p4xNBlKIBzw1sxDvnefI-14" value="Consumer 1&lt;br style=&quot;font-size: 15px;&quot;&gt;group-id: group-1" style="rounded=0;whiteSpace=wrap;html=1;sketch=1;hachureGap=4;jiggle=2;curveFitting=1;fontFamily=Architects Daughter;fontSource=https%3A%2F%2Ffonts.googleapis.com%2Fcss%3Ffamily%3DArchitects%2BDaughter;fontSize=15;fontStyle=1;fillColor=#d5e8d4;strokeColor=#82b366;" parent="1" vertex="1">
          <mxGeometry x="460" y="320" width="120" height="60" as="geometry" />
        </mxCell>
        <mxCell id="YnqV_Xg9dmx3B1v00Xrc-1" value="" style="rounded=0;whiteSpace=wrap;html=1;sketch=1;hachureGap=4;jiggle=2;curveFitting=1;fontFamily=Architects Daughter;fontSource=https%3A%2F%2Ffonts.googleapis.com%2Fcss%3Ffamily%3DArchitects%2BDaughter;fontSize=20;horizontal=1;verticalAlign=top;align=right;fillColor=#dae8fc;strokeColor=#6c8ebf;" vertex="1" parent="1">
          <mxGeometry x="60" y="231" width="480" height="60" as="geometry" />
        </mxCell>
        <mxCell id="YnqV_Xg9dmx3B1v00Xrc-2" value="&lt;b&gt;1&lt;/b&gt;" style="rounded=0;whiteSpace=wrap;html=1;sketch=1;hachureGap=4;jiggle=2;curveFitting=1;fontFamily=Architects Daughter;fontSource=https%3A%2F%2Ffonts.googleapis.com%2Fcss%3Ffamily%3DArchitects%2BDaughter;fontSize=20;" vertex="1" parent="1">
          <mxGeometry x="140" y="241" width="50" height="40" as="geometry" />
        </mxCell>
        <mxCell id="YnqV_Xg9dmx3B1v00Xrc-3" value="&lt;b&gt;0&lt;/b&gt;" style="rounded=0;whiteSpace=wrap;html=1;sketch=1;hachureGap=4;jiggle=2;curveFitting=1;fontFamily=Architects Daughter;fontSource=https%3A%2F%2Ffonts.googleapis.com%2Fcss%3Ffamily%3DArchitects%2BDaughter;fontSize=20;" vertex="1" parent="1">
          <mxGeometry x="80" y="241" width="50" height="40" as="geometry" />
        </mxCell>
        <mxCell id="YnqV_Xg9dmx3B1v00Xrc-4" value="&lt;b&gt;2&lt;/b&gt;" style="rounded=0;whiteSpace=wrap;html=1;sketch=1;hachureGap=4;jiggle=2;curveFitting=1;fontFamily=Architects Daughter;fontSource=https%3A%2F%2Ffonts.googleapis.com%2Fcss%3Ffamily%3DArchitects%2BDaughter;fontSize=20;" vertex="1" parent="1">
          <mxGeometry x="200" y="241" width="50" height="40" as="geometry" />
        </mxCell>
        <mxCell id="YnqV_Xg9dmx3B1v00Xrc-5" value="&lt;b&gt;m&lt;/b&gt;" style="rounded=0;whiteSpace=wrap;html=1;sketch=1;hachureGap=4;jiggle=2;curveFitting=1;fontFamily=Architects Daughter;fontSource=https%3A%2F%2Ffonts.googleapis.com%2Fcss%3Ffamily%3DArchitects%2BDaughter;fontSize=20;" vertex="1" parent="1">
          <mxGeometry x="310" y="241" width="50" height="40" as="geometry" />
        </mxCell>
        <mxCell id="YnqV_Xg9dmx3B1v00Xrc-6" value="&lt;b&gt;m+1&lt;/b&gt;" style="rounded=0;whiteSpace=wrap;html=1;sketch=1;hachureGap=4;jiggle=2;curveFitting=1;fontFamily=Architects Daughter;fontSource=https%3A%2F%2Ffonts.googleapis.com%2Fcss%3Ffamily%3DArchitects%2BDaughter;fontSize=20;" vertex="1" parent="1">
          <mxGeometry x="370" y="241" width="50" height="40" as="geometry" />
        </mxCell>
        <mxCell id="YnqV_Xg9dmx3B1v00Xrc-7" value="&lt;b&gt;m+2&lt;/b&gt;" style="rounded=0;whiteSpace=wrap;html=1;sketch=1;hachureGap=4;jiggle=2;curveFitting=1;fontFamily=Architects Daughter;fontSource=https%3A%2F%2Ffonts.googleapis.com%2Fcss%3Ffamily%3DArchitects%2BDaughter;fontSize=20;" vertex="1" parent="1">
          <mxGeometry x="430" y="241" width="50" height="40" as="geometry" />
        </mxCell>
        <mxCell id="YnqV_Xg9dmx3B1v00Xrc-12" value="Offset = m+1" style="edgeLabel;html=1;align=center;verticalAlign=middle;resizable=0;points=[];fontSize=15;fontFamily=Architects Daughter;fontStyle=1" vertex="1" connectable="0" parent="1">
          <mxGeometry x="390" y="220" as="geometry" />
        </mxCell>
        <mxCell id="YnqV_Xg9dmx3B1v00Xrc-13" value="&lt;b&gt;Topic A, partition_0&lt;/b&gt;" style="text;html=1;align=center;verticalAlign=middle;resizable=0;points=[];autosize=1;strokeColor=none;fillColor=none;fontSize=20;fontFamily=Architects Daughter;" vertex="1" parent="1">
          <mxGeometry x="60" y="190" width="210" height="40" as="geometry" />
        </mxCell>
        <mxCell id="YnqV_Xg9dmx3B1v00Xrc-15" value="&lt;b&gt;Topic A, partition_1&lt;/b&gt;" style="text;html=1;align=center;verticalAlign=middle;resizable=0;points=[];autosize=1;strokeColor=none;fillColor=none;fontSize=20;fontFamily=Architects Daughter;" vertex="1" parent="1">
          <mxGeometry x="25" y="380" width="200" height="40" as="geometry" />
        </mxCell>
        <mxCell id="YnqV_Xg9dmx3B1v00Xrc-17" style="rounded=0;sketch=1;hachureGap=4;jiggle=2;curveFitting=1;orthogonalLoop=1;jettySize=auto;html=1;exitX=0.5;exitY=0;exitDx=0;exitDy=0;entryX=0.5;entryY=1;entryDx=0;entryDy=0;fontFamily=Architects Daughter;fontSource=https%3A%2F%2Ffonts.googleapis.com%2Fcss%3Ffamily%3DArchitects%2BDaughter;fontSize=16;" edge="1" parent="1" source="YnqV_Xg9dmx3B1v00Xrc-16" target="p4xNBlKIBzw1sxDvnefI-8">
          <mxGeometry relative="1" as="geometry" />
        </mxCell>
        <mxCell id="YnqV_Xg9dmx3B1v00Xrc-16" value="&lt;font style=&quot;font-size: 15px;&quot;&gt;Consumer 3&lt;br&gt;group-id: group-2&lt;/font&gt;" style="rounded=0;whiteSpace=wrap;html=1;sketch=1;hachureGap=4;jiggle=2;curveFitting=1;fontFamily=Architects Daughter;fontSource=https%3A%2F%2Ffonts.googleapis.com%2Fcss%3Ffamily%3DArchitects%2BDaughter;fontSize=20;fontStyle=1;fillColor=#f8cecc;strokeColor=#b85450;" vertex="1" parent="1">
          <mxGeometry x="414" y="550" width="120" height="60" as="geometry" />
        </mxCell>
        <mxCell id="YnqV_Xg9dmx3B1v00Xrc-18" value="Offset = n" style="edgeLabel;html=1;align=center;verticalAlign=middle;resizable=0;points=[];fontSize=15;fontFamily=Architects Daughter;fontStyle=1" vertex="1" connectable="0" parent="1">
          <mxGeometry x="500" y="520" as="geometry" />
        </mxCell>
        <mxCell id="YnqV_Xg9dmx3B1v00Xrc-19" value="Offset = m" style="edgeLabel;html=1;align=center;verticalAlign=middle;resizable=0;points=[];fontSize=15;fontFamily=Architects Daughter;fontStyle=1" vertex="1" connectable="0" parent="1">
          <mxGeometry x="400" y="320" as="geometry" />
        </mxCell>
        <mxCell id="YnqV_Xg9dmx3B1v00Xrc-21" value="Offset = m+1" style="edgeLabel;html=1;align=center;verticalAlign=middle;resizable=0;points=[];fontSize=15;fontFamily=Architects Daughter;fontStyle=1" vertex="1" connectable="0" parent="1">
          <mxGeometry x="340" y="410" as="geometry" />
        </mxCell>
      </root>
    </mxGraphModel>
  </diagram>
</mxfile>
